<svg width="18" height="24" viewBox="0 0 18 24" fill="none" xmlns="http://www.w3.org/2000/svg">
<path d="M9 0.54541C6.61305 0.54541 4.32387 1.51086 2.63604 3.22937C0.948212 4.94788 0 7.27868 0 9.70902C0 15.8945 7.93125 22.8817 8.26875 23.1795C8.47252 23.357 8.73185 23.4545 9 23.4545C9.26815 23.4545 9.52748 23.357 9.73125 23.1795C10.125 22.8817 18 15.8945 18 9.70902C18 7.27868 17.0518 4.94788 15.364 3.22937C13.6761 1.51086 11.3869 0.54541 9 0.54541ZM9 20.7626C6.60375 18.4717 2.25 13.5348 2.25 9.70902C2.25 7.88626 2.96116 6.13816 4.22703 4.84928C5.4929 3.5604 7.20979 2.83631 9 2.83631C10.7902 2.83631 12.5071 3.5604 13.773 4.84928C15.0388 6.13816 15.75 7.88626 15.75 9.70902C15.75 13.5348 11.3962 18.4832 9 20.7626ZM9 5.12721C8.10998 5.12721 7.23996 5.39593 6.49993 5.89939C5.75991 6.40284 5.18314 7.11842 4.84254 7.95564C4.50195 8.79285 4.41283 9.7141 4.58647 10.6029C4.7601 11.4917 5.18868 12.3081 5.81802 12.9488C6.44736 13.5896 7.24918 14.026 8.12209 14.2028C8.99501 14.3796 9.89981 14.2888 10.7221 13.9421C11.5443 13.5953 12.2471 13.008 12.7416 12.2545C13.2361 11.5011 13.5 10.6152 13.5 9.70902C13.5 8.49385 13.0259 7.32845 12.182 6.46919C11.3381 5.60994 10.1935 5.12721 9 5.12721ZM9 11.9999C8.55499 11.9999 8.11998 11.8656 7.74997 11.6138C7.37996 11.3621 7.09157 11.0043 6.92127 10.5857C6.75097 10.1671 6.70642 9.70648 6.79323 9.26208C6.88005 8.81769 7.09434 8.40949 7.40901 8.08911C7.72368 7.76872 8.12459 7.55053 8.56105 7.46213C8.9975 7.37374 9.4499 7.41911 9.86104 7.5925C10.2722 7.76589 10.6236 8.05952 10.8708 8.43626C11.118 8.813 11.25 9.25592 11.25 9.70902C11.25 10.3166 11.0129 10.8993 10.591 11.3289C10.169 11.7586 9.59674 11.9999 9 11.9999Z" fill="white"/>
</svg>
